<mxfile host="app.diagrams.net" modified="2023-09-23T16:14:24.129Z" agent="Mozilla/5.0 (Windows NT 10.0; Win64; x64) AppleWebKit/537.36 (KHTML, like Gecko) Chrome/116.0.0.0 Safari/537.36" etag="gEHK9O9ovM2B-fjYVkVm" version="21.8.1" type="device">
  <diagram name="Page-1" id="QG92mXA5_pjA53bUcrjo">
    <mxGraphModel dx="794" dy="456" grid="1" gridSize="10" guides="1" tooltips="1" connect="1" arrows="1" fold="1" page="1" pageScale="1" pageWidth="827" pageHeight="1169" math="0" shadow="0">
      <root>
        <mxCell id="0" />
        <mxCell id="1" parent="0" />
        <mxCell id="Pm59Mpba3-JkTinffYsm-1" value="Hotel room&lt;br&gt;&amp;nbsp;booking system" style="ellipse;whiteSpace=wrap;html=1;aspect=fixed;" parent="1" vertex="1">
          <mxGeometry x="329" y="500" width="169" height="169" as="geometry" />
        </mxCell>
        <mxCell id="Pm59Mpba3-JkTinffYsm-2" value="Search module" style="rounded=0;whiteSpace=wrap;html=1;" parent="1" vertex="1">
          <mxGeometry x="110" y="649" width="140" height="60" as="geometry" />
        </mxCell>
        <mxCell id="Pm59Mpba3-JkTinffYsm-5" value="User module" style="rounded=0;whiteSpace=wrap;html=1;" parent="1" vertex="1">
          <mxGeometry x="110" y="555" width="140" height="60" as="geometry" />
        </mxCell>
        <mxCell id="Pm59Mpba3-JkTinffYsm-6" value="Admin module" style="rounded=0;whiteSpace=wrap;html=1;" parent="1" vertex="1">
          <mxGeometry x="110" y="461" width="140" height="60" as="geometry" />
        </mxCell>
        <mxCell id="Pm59Mpba3-JkTinffYsm-8" value="Availability" style="rounded=0;whiteSpace=wrap;html=1;" parent="1" vertex="1">
          <mxGeometry x="580" y="615" width="140" height="60" as="geometry" />
        </mxCell>
        <mxCell id="Pm59Mpba3-JkTinffYsm-9" value="Payment module" style="rounded=0;whiteSpace=wrap;html=1;" parent="1" vertex="1">
          <mxGeometry x="580" y="520" width="140" height="60" as="geometry" />
        </mxCell>
        <mxCell id="Pm59Mpba3-JkTinffYsm-10" value="Details of user" style="rounded=0;whiteSpace=wrap;html=1;" parent="1" vertex="1">
          <mxGeometry x="580" y="720" width="140" height="60" as="geometry" />
        </mxCell>
        <mxCell id="Pm59Mpba3-JkTinffYsm-12" value="Booking module" style="rounded=0;whiteSpace=wrap;html=1;" parent="1" vertex="1">
          <mxGeometry x="580" y="420" width="140" height="60" as="geometry" />
        </mxCell>
        <mxCell id="Pm59Mpba3-JkTinffYsm-18" value="" style="endArrow=classic;html=1;rounded=0;exitX=1;exitY=0.5;exitDx=0;exitDy=0;entryX=0;entryY=0;entryDx=0;entryDy=0;" parent="1" source="Pm59Mpba3-JkTinffYsm-6" target="Pm59Mpba3-JkTinffYsm-1" edge="1">
          <mxGeometry width="50" height="50" relative="1" as="geometry">
            <mxPoint x="380" y="530" as="sourcePoint" />
            <mxPoint x="430" y="480" as="targetPoint" />
          </mxGeometry>
        </mxCell>
        <mxCell id="Pm59Mpba3-JkTinffYsm-19" value="" style="endArrow=classic;html=1;rounded=0;exitX=1;exitY=0.5;exitDx=0;exitDy=0;entryX=0;entryY=0.5;entryDx=0;entryDy=0;" parent="1" source="Pm59Mpba3-JkTinffYsm-5" target="Pm59Mpba3-JkTinffYsm-1" edge="1">
          <mxGeometry width="50" height="50" relative="1" as="geometry">
            <mxPoint x="380" y="530" as="sourcePoint" />
            <mxPoint x="430" y="480" as="targetPoint" />
          </mxGeometry>
        </mxCell>
        <mxCell id="Pm59Mpba3-JkTinffYsm-20" value="" style="endArrow=classic;html=1;rounded=0;exitX=1;exitY=0.5;exitDx=0;exitDy=0;entryX=0;entryY=1;entryDx=0;entryDy=0;" parent="1" source="Pm59Mpba3-JkTinffYsm-2" target="Pm59Mpba3-JkTinffYsm-1" edge="1">
          <mxGeometry width="50" height="50" relative="1" as="geometry">
            <mxPoint x="380" y="530" as="sourcePoint" />
            <mxPoint x="430" y="480" as="targetPoint" />
          </mxGeometry>
        </mxCell>
        <mxCell id="LliS4TgNdqkBkxU7ltsb-2" value="" style="endArrow=classic;html=1;rounded=0;entryX=1;entryY=0;entryDx=0;entryDy=0;exitX=0;exitY=0.5;exitDx=0;exitDy=0;" edge="1" parent="1" source="Pm59Mpba3-JkTinffYsm-12" target="Pm59Mpba3-JkTinffYsm-1">
          <mxGeometry width="50" height="50" relative="1" as="geometry">
            <mxPoint x="360" y="590" as="sourcePoint" />
            <mxPoint x="410" y="540" as="targetPoint" />
          </mxGeometry>
        </mxCell>
        <mxCell id="LliS4TgNdqkBkxU7ltsb-3" value="" style="endArrow=classic;html=1;rounded=0;entryX=0.984;entryY=0.359;entryDx=0;entryDy=0;entryPerimeter=0;exitX=0;exitY=0.5;exitDx=0;exitDy=0;" edge="1" parent="1" source="Pm59Mpba3-JkTinffYsm-9" target="Pm59Mpba3-JkTinffYsm-1">
          <mxGeometry width="50" height="50" relative="1" as="geometry">
            <mxPoint x="360" y="590" as="sourcePoint" />
            <mxPoint x="410" y="540" as="targetPoint" />
          </mxGeometry>
        </mxCell>
        <mxCell id="LliS4TgNdqkBkxU7ltsb-4" value="" style="endArrow=classic;html=1;rounded=0;entryX=0.984;entryY=0.659;entryDx=0;entryDy=0;entryPerimeter=0;exitX=0;exitY=0.5;exitDx=0;exitDy=0;" edge="1" parent="1" source="Pm59Mpba3-JkTinffYsm-8" target="Pm59Mpba3-JkTinffYsm-1">
          <mxGeometry width="50" height="50" relative="1" as="geometry">
            <mxPoint x="360" y="590" as="sourcePoint" />
            <mxPoint x="410" y="540" as="targetPoint" />
          </mxGeometry>
        </mxCell>
        <mxCell id="LliS4TgNdqkBkxU7ltsb-5" value="" style="endArrow=classic;html=1;rounded=0;entryX=1;entryY=1;entryDx=0;entryDy=0;exitX=0;exitY=0.5;exitDx=0;exitDy=0;" edge="1" parent="1" source="Pm59Mpba3-JkTinffYsm-10" target="Pm59Mpba3-JkTinffYsm-1">
          <mxGeometry width="50" height="50" relative="1" as="geometry">
            <mxPoint x="360" y="590" as="sourcePoint" />
            <mxPoint x="410" y="540" as="targetPoint" />
          </mxGeometry>
        </mxCell>
      </root>
    </mxGraphModel>
  </diagram>
</mxfile>
